<svg xmlns="http://www.w3.org/2000/svg" viewBox="0 0 32 32" fill="none">
  <defs>
    <linearGradient id="fbg" x1="4" y1="1" x2="28" y2="31" gradientUnits="userSpaceOnUse">
      <stop offset="0%" stop-color="#64D2FF"/>
      <stop offset="45%" stop-color="#0A84FF"/>
      <stop offset="100%" stop-color="#0055C4"/>
    </linearGradient>
  </defs>
  <rect width="32" height="32" rx="8" fill="url(#fbg)"/>
  <g fill="#FFFFFF">
    <rect x="9.5" y="8.5" width="3.5" height="15" rx="1.75"/>
    <path d="M14.2 15.4c0-.75.38-1.32 1.03-1.68L22.1 10c1.05-.6 2.35.15 2.35 1.35v1.15c0 .55-.3 1.05-.78 1.32l-5.4 3.18c-1.3.77-3.07-.15-3.07-1.65v-.95z"/>
    <path d="M14.2 16.6c0 .75.38 1.32 1.03 1.68L22.1 22c1.05.6 2.35-.15 2.35-1.35v-1.15c0-.55-.3-1.05-.78-1.32l-5.4-3.18c-1.3-.77-3.07.15-3.07 1.65v.95z"/>
  </g>
</svg>
