<svg xmlns="http://www.w3.org/2000/svg" viewBox="0 0 128 128" fill="none" role="img" aria-label="Kit">
  <defs>
    <linearGradient id="kit-bg" x1="16" y1="4" x2="114" y2="124" gradientUnits="userSpaceOnUse">
      <stop offset="0%" stop-color="#5AC8FA"/>
      <stop offset="40%" stop-color="#0A84FF"/>
      <stop offset="100%" stop-color="#0051B3"/>
    </linearGradient>
    <linearGradient id="kit-sheen" x1="64" y1="0" x2="64" y2="72" gradientUnits="userSpaceOnUse">
      <stop offset="0%" stop-color="#FFFFFF" stop-opacity="0.28"/>
      <stop offset="100%" stop-color="#FFFFFF" stop-opacity="0"/>
    </linearGradient>
  </defs>

  <!-- App tile -->
  <rect width="128" height="128" rx="32" fill="url(#kit-bg)"/>
  <rect width="128" height="128" rx="32" fill="url(#kit-sheen)"/>

  <!--
    Kit mark: rounded stem + chevron arms.
    Optical gap from stem keeps the form crisp at favicon sizes.
  -->
  <g fill="#FFFFFF">
    <rect x="36" y="32" width="16" height="64" rx="8"/>
    <!-- Upper arm -->
    <path d="
      M58 58
      C58 54.8 59.9 52.2 62.8 50.7
      L86.4 38.2
      C90.8 35.9 96 39.1 96 44.1
      V49.2
      C96 51.6 94.7 53.8 92.6 54.9
      L70.2 66.8
      C64.8 69.6 58 65.8 58 59.6
      V58Z
    "/>
    <!-- Lower arm -->
    <path d="
      M58 70
      C58 73.2 59.9 75.8 62.8 77.3
      L86.4 89.8
      C90.8 92.1 96 88.9 96 83.9
      V78.8
      C96 76.4 94.7 74.2 92.6 73.1
      L70.2 61.2
      C64.8 58.4 58 62.2 58 68.4
      V70Z
    "/>
  </g>
</svg>
